<mxfile host="65bd71144e">
    <diagram name="Page-1" id="q8jaylVb9SGp_ZVZKPTC">
        <mxGraphModel dx="929" dy="794" grid="1" gridSize="10" guides="1" tooltips="1" connect="1" arrows="1" fold="1" page="1" pageScale="1" pageWidth="1100" pageHeight="850" math="0" shadow="0">
            <root>
                <mxCell id="0"/>
                <mxCell id="1" parent="0"/>
                <mxCell id="39" value="" style="group" vertex="1" connectable="0" parent="1">
                    <mxGeometry x="230" y="273.001884057971" width="640" height="303.768115942029" as="geometry"/>
                </mxCell>
                <mxCell id="Y9ZtIRZAZ_wUy5RqevfC-3" value="test-data" style="shape=cylinder3;whiteSpace=wrap;html=1;boundedLbl=1;backgroundOutline=1;size=9;" parent="39" vertex="1">
                    <mxGeometry x="260" y="178.768115942029" width="120" height="60" as="geometry"/>
                </mxCell>
                <mxCell id="Y9ZtIRZAZ_wUy5RqevfC-6" value="collections" style="rounded=0;whiteSpace=wrap;html=1;" parent="39" vertex="1">
                    <mxGeometry x="60" y="68.768115942029" width="120" height="60" as="geometry"/>
                </mxCell>
                <mxCell id="Y9ZtIRZAZ_wUy5RqevfC-28" style="edgeStyle=orthogonalEdgeStyle;rounded=0;orthogonalLoop=1;jettySize=auto;html=1;exitX=0.75;exitY=0;exitDx=0;exitDy=0;entryX=0.75;entryY=1;entryDx=0;entryDy=0;dashed=1;" parent="39" source="Y9ZtIRZAZ_wUy5RqevfC-8" target="Y9ZtIRZAZ_wUy5RqevfC-6" edge="1">
                    <mxGeometry relative="1" as="geometry"/>
                </mxCell>
                <mxCell id="Y9ZtIRZAZ_wUy5RqevfC-8" value="callers" style="rounded=0;whiteSpace=wrap;html=1;" parent="39" vertex="1">
                    <mxGeometry x="60" y="178.768115942029" width="120" height="60" as="geometry"/>
                </mxCell>
                <mxCell id="Y9ZtIRZAZ_wUy5RqevfC-27" style="edgeStyle=orthogonalEdgeStyle;rounded=0;orthogonalLoop=1;jettySize=auto;html=1;exitX=0.25;exitY=1;exitDx=0;exitDy=0;entryX=0.25;entryY=0;entryDx=0;entryDy=0;" parent="39" source="Y9ZtIRZAZ_wUy5RqevfC-6" target="Y9ZtIRZAZ_wUy5RqevfC-8" edge="1">
                    <mxGeometry relative="1" as="geometry"/>
                </mxCell>
                <mxCell id="Y9ZtIRZAZ_wUy5RqevfC-25" style="edgeStyle=orthogonalEdgeStyle;rounded=0;orthogonalLoop=1;jettySize=auto;html=1;exitX=0;exitY=0.25;exitDx=0;exitDy=0;entryX=1;entryY=0.25;entryDx=0;entryDy=0;" parent="39" source="Y9ZtIRZAZ_wUy5RqevfC-10" target="Y9ZtIRZAZ_wUy5RqevfC-6" edge="1">
                    <mxGeometry relative="1" as="geometry"/>
                </mxCell>
                <mxCell id="Y9ZtIRZAZ_wUy5RqevfC-10" value="__tests__" style="rounded=0;whiteSpace=wrap;html=1;" parent="39" vertex="1">
                    <mxGeometry x="260" y="68.768115942029" width="120" height="60" as="geometry"/>
                </mxCell>
                <mxCell id="iezkyDiXKAyzDA7zgGz_-10" style="edgeStyle=orthogonalEdgeStyle;rounded=0;orthogonalLoop=1;jettySize=auto;html=1;exitX=0.5;exitY=0;exitDx=0;exitDy=0;exitPerimeter=0;entryX=0.5;entryY=1;entryDx=0;entryDy=0;startArrow=classic;startFill=1;" parent="39" source="Y9ZtIRZAZ_wUy5RqevfC-3" target="Y9ZtIRZAZ_wUy5RqevfC-10" edge="1">
                    <mxGeometry relative="1" as="geometry"/>
                </mxCell>
                <mxCell id="Y9ZtIRZAZ_wUy5RqevfC-26" style="edgeStyle=orthogonalEdgeStyle;rounded=0;orthogonalLoop=1;jettySize=auto;html=1;exitX=1;exitY=0.75;exitDx=0;exitDy=0;entryX=0;entryY=0.75;entryDx=0;entryDy=0;dashed=1;" parent="39" source="Y9ZtIRZAZ_wUy5RqevfC-6" target="Y9ZtIRZAZ_wUy5RqevfC-10" edge="1">
                    <mxGeometry relative="1" as="geometry"/>
                </mxCell>
                <mxCell id="Y9ZtIRZAZ_wUy5RqevfC-38" value="call" style="text;html=1;strokeColor=none;fillColor=none;align=center;verticalAlign=middle;whiteSpace=wrap;rounded=0;" parent="39" vertex="1">
                    <mxGeometry x="190" y="58.768115942029" width="60" height="30" as="geometry"/>
                </mxCell>
                <mxCell id="Y9ZtIRZAZ_wUy5RqevfC-39" value="return" style="text;html=1;strokeColor=none;fillColor=none;align=center;verticalAlign=middle;whiteSpace=wrap;rounded=0;" parent="39" vertex="1">
                    <mxGeometry x="190" y="88.768115942029" width="60" height="30" as="geometry"/>
                </mxCell>
                <mxCell id="Y9ZtIRZAZ_wUy5RqevfC-40" value="call" style="text;html=1;strokeColor=none;fillColor=none;align=center;verticalAlign=middle;whiteSpace=wrap;rounded=0;" parent="39" vertex="1">
                    <mxGeometry x="70" y="138.768115942029" width="70" height="30" as="geometry"/>
                </mxCell>
                <mxCell id="Y9ZtIRZAZ_wUy5RqevfC-41" value="return" style="text;html=1;strokeColor=none;fillColor=none;align=center;verticalAlign=middle;whiteSpace=wrap;rounded=0;" parent="39" vertex="1">
                    <mxGeometry x="140" y="138.768115942029" width="70" height="30" as="geometry"/>
                </mxCell>
                <mxCell id="9RCbAT-m_1eRUZB68ZXo-5" value="get" style="text;html=1;strokeColor=none;fillColor=none;align=center;verticalAlign=middle;whiteSpace=wrap;rounded=0;" parent="39" vertex="1">
                    <mxGeometry x="310" y="133.768115942029" width="50" height="40" as="geometry"/>
                </mxCell>
                <mxCell id="7" value="utilities-verifier" style="rounded=0;whiteSpace=wrap;html=1;" parent="39" vertex="1">
                    <mxGeometry x="460" y="68.768115942029" width="120" height="60" as="geometry"/>
                </mxCell>
                <mxCell id="34" value="" style="group" vertex="1" connectable="0" parent="39">
                    <mxGeometry x="380" y="183.768115942029" width="80" height="30" as="geometry"/>
                </mxCell>
                <mxCell id="35" style="edgeStyle=orthogonalEdgeStyle;rounded=0;orthogonalLoop=1;jettySize=auto;html=1;exitX=0;exitY=0.25;exitDx=0;exitDy=0;entryX=1;entryY=0.25;entryDx=0;entryDy=0;" edge="1" parent="34">
                    <mxGeometry relative="1" as="geometry">
                        <mxPoint x="80" y="25" as="sourcePoint"/>
                        <mxPoint y="25" as="targetPoint"/>
                    </mxGeometry>
                </mxCell>
                <mxCell id="36" value="call" style="text;html=1;strokeColor=none;fillColor=none;align=center;verticalAlign=middle;whiteSpace=wrap;rounded=0;" vertex="1" parent="34">
                    <mxGeometry x="10" width="60" height="30" as="geometry"/>
                </mxCell>
                <mxCell id="iezkyDiXKAyzDA7zgGz_-9" value="" style="shape=hexagon;perimeter=hexagonPerimeter2;whiteSpace=wrap;html=1;fixedSize=1;gradientColor=default;fillColor=none;size=50;verticalAlign=top;fontSize=14;labelBackgroundColor=default;fontStyle=1" parent="39" vertex="1">
                    <mxGeometry y="3.7681159420289987" width="640" height="300" as="geometry"/>
                </mxCell>
                <mxCell id="iezkyDiXKAyzDA7zgGz_-14" value="envi" style="text;html=1;strokeColor=default;fillColor=none;align=center;verticalAlign=middle;whiteSpace=wrap;rounded=1;fontStyle=1;fontSize=14;glass=0;shadow=0;arcSize=1;" parent="39" vertex="1">
                    <mxGeometry x="62.45901639344265" y="3.7681159420289987" width="52.459016393442624" height="30.144927536231886" as="geometry"/>
                </mxCell>
                <mxCell id="28" value="config" style="rounded=0;whiteSpace=wrap;html=1;" vertex="1" parent="39">
                    <mxGeometry x="198.85245901639342" y="3.7681159420289987" width="83.93442622950819" height="30.144927536231886" as="geometry"/>
                </mxCell>
                <mxCell id="31" value="" style="group" vertex="1" connectable="0" parent="39">
                    <mxGeometry x="114.91803278688525" width="83.93442622950819" height="20.800000000000004" as="geometry"/>
                </mxCell>
                <mxCell id="29" style="edgeStyle=orthogonalEdgeStyle;rounded=0;orthogonalLoop=1;jettySize=auto;html=1;exitX=0;exitY=0.25;exitDx=0;exitDy=0;entryX=1;entryY=0.25;entryDx=0;entryDy=0;" edge="1" parent="31">
                    <mxGeometry relative="1" as="geometry">
                        <mxPoint x="83.93442622950819" y="17.333333333333336" as="sourcePoint"/>
                        <mxPoint y="17.333333333333336" as="targetPoint"/>
                    </mxGeometry>
                </mxCell>
                <mxCell id="30" value="call" style="text;html=1;strokeColor=none;fillColor=none;align=center;verticalAlign=middle;whiteSpace=wrap;rounded=0;" vertex="1" parent="31">
                    <mxGeometry x="10.491803278688524" width="62.950819672131146" height="20.800000000000004" as="geometry"/>
                </mxCell>
                <mxCell id="32" value="utilities-helper" style="rounded=0;whiteSpace=wrap;html=1;" vertex="1" parent="39">
                    <mxGeometry x="460" y="179.768115942029" width="120" height="60" as="geometry"/>
                </mxCell>
                <mxCell id="33" value="" style="group" vertex="1" connectable="0" parent="39">
                    <mxGeometry x="379.9967213114754" y="73.768115942029" width="83.93442622950819" height="30" as="geometry"/>
                </mxCell>
                <mxCell id="8" style="edgeStyle=orthogonalEdgeStyle;rounded=0;orthogonalLoop=1;jettySize=auto;html=1;entryX=1;entryY=0.25;entryDx=0;entryDy=0;" parent="33" edge="1">
                    <mxGeometry relative="1" as="geometry">
                        <mxPoint x="80.00327868852457" y="25" as="sourcePoint"/>
                        <mxPoint y="25" as="targetPoint"/>
                    </mxGeometry>
                </mxCell>
                <mxCell id="9" value="call" style="text;html=1;strokeColor=none;fillColor=none;align=center;verticalAlign=middle;whiteSpace=wrap;rounded=0;" parent="33" vertex="1">
                    <mxGeometry x="10.491803278688524" width="62.950819672131146" height="30" as="geometry"/>
                </mxCell>
            </root>
        </mxGraphModel>
    </diagram>
</mxfile>